<?xml version="1.0" standalone="no"?>
<svg xmlns:xlink="http://www.w3.org/1999/xlink" id="wave" style="transform:rotate(0deg); transition: 0.3s" viewBox="0 0 1440 160" version="1.1" xmlns="http://www.w3.org/2000/svg"><defs><linearGradient id="sw-gradient-0" x1="0" x2="0" y1="1" y2="0"><stop stop-color="rgba(243, 106, 62, 1)" offset="0%"/><stop stop-color="rgba(255, 239, 3, 1)" offset="100%"/></linearGradient></defs><path style="transform:translate(0, 0px); opacity:1" fill="url(#sw-gradient-0)" d="M0,80L34.3,85.3C68.6,91,137,101,206,96C274.3,91,343,69,411,64C480,59,549,69,617,80C685.7,91,754,101,823,88C891.4,75,960,37,1029,24C1097.1,11,1166,21,1234,29.3C1302.9,37,1371,43,1440,45.3C1508.6,48,1577,48,1646,42.7C1714.3,37,1783,27,1851,32C1920,37,1989,59,2057,69.3C2125.7,80,2194,80,2263,80C2331.4,80,2400,80,2469,72C2537.1,64,2606,48,2674,34.7C2742.9,21,2811,11,2880,29.3C2948.6,48,3017,96,3086,101.3C3154.3,107,3223,69,3291,69.3C3360,69,3429,107,3497,112C3565.7,117,3634,91,3703,72C3771.4,53,3840,43,3909,34.7C3977.1,27,4046,21,4114,40C4182.9,59,4251,101,4320,112C4388.6,123,4457,101,4526,90.7C4594.3,80,4663,80,4731,77.3C4800,75,4869,69,4903,66.7L4937.1,64L4937.1,160L4902.9,160C4868.6,160,4800,160,4731,160C4662.9,160,4594,160,4526,160C4457.1,160,4389,160,4320,160C4251.4,160,4183,160,4114,160C4045.7,160,3977,160,3909,160C3840,160,3771,160,3703,160C3634.3,160,3566,160,3497,160C3428.6,160,3360,160,3291,160C3222.9,160,3154,160,3086,160C3017.1,160,2949,160,2880,160C2811.4,160,2743,160,2674,160C2605.7,160,2537,160,2469,160C2400,160,2331,160,2263,160C2194.3,160,2126,160,2057,160C1988.6,160,1920,160,1851,160C1782.9,160,1714,160,1646,160C1577.1,160,1509,160,1440,160C1371.4,160,1303,160,1234,160C1165.7,160,1097,160,1029,160C960,160,891,160,823,160C754.3,160,686,160,617,160C548.6,160,480,160,411,160C342.9,160,274,160,206,160C137.1,160,69,160,34,160L0,160Z"/></svg>