<?xml version="1.0" standalone="no"?>
<svg xmlns:xlink="http://www.w3.org/1999/xlink" id="wave" style="transform:rotate(0deg); transition: 0.3s" viewBox="0 0 1440 490" version="1.1" xmlns="http://www.w3.org/2000/svg"><defs><linearGradient id="sw-gradient-0" x1="0" x2="0" y1="1" y2="0"><stop stop-color="rgba(243, 106, 62, 1)" offset="0%"/><stop stop-color="rgba(255, 239, 3, 1)" offset="100%"/></linearGradient></defs><path style="transform:translate(0, 0px); opacity:1" fill="url(#sw-gradient-0)" d="M0,245L48,261.3C96,278,192,310,288,294C384,278,480,212,576,196C672,180,768,212,864,245C960,278,1056,310,1152,269.5C1248,229,1344,114,1440,73.5C1536,33,1632,65,1728,89.8C1824,114,1920,131,2016,138.8C2112,147,2208,147,2304,130.7C2400,114,2496,82,2592,98C2688,114,2784,180,2880,212.3C2976,245,3072,245,3168,245C3264,245,3360,245,3456,220.5C3552,196,3648,147,3744,106.2C3840,65,3936,33,4032,89.8C4128,147,4224,294,4320,310.3C4416,327,4512,212,4608,212.3C4704,212,4800,327,4896,343C4992,359,5088,278,5184,220.5C5280,163,5376,131,5472,106.2C5568,82,5664,65,5760,122.5C5856,180,5952,310,6048,343C6144,376,6240,310,6336,277.7C6432,245,6528,245,6624,236.8C6720,229,6816,212,6864,204.2L6912,196L6912,490L6864,490C6816,490,6720,490,6624,490C6528,490,6432,490,6336,490C6240,490,6144,490,6048,490C5952,490,5856,490,5760,490C5664,490,5568,490,5472,490C5376,490,5280,490,5184,490C5088,490,4992,490,4896,490C4800,490,4704,490,4608,490C4512,490,4416,490,4320,490C4224,490,4128,490,4032,490C3936,490,3840,490,3744,490C3648,490,3552,490,3456,490C3360,490,3264,490,3168,490C3072,490,2976,490,2880,490C2784,490,2688,490,2592,490C2496,490,2400,490,2304,490C2208,490,2112,490,2016,490C1920,490,1824,490,1728,490C1632,490,1536,490,1440,490C1344,490,1248,490,1152,490C1056,490,960,490,864,490C768,490,672,490,576,490C480,490,384,490,288,490C192,490,96,490,48,490L0,490Z"/></svg>